<svg id="svg176" xmlns="http://www.w3.org/2000/svg" xmlns:xlink="http://www.w3.org/1999/xlink" viewBox="0 0 902.64 195.26"><defs><style>.cls-1{fill:none;}.cls-2{clip-path:url(#clip-path);}.cls-3{fill:url(#Gradiente_sem_nome);}.cls-4{fill:url(#Gradiente_sem_nome_2);}.cls-5{fill:url(#Gradiente_sem_nome_3);}.cls-6{fill:url(#Gradiente_sem_nome_4);}.cls-7{fill:url(#Gradiente_sem_nome_5);}.cls-8{fill:url(#Gradiente_sem_nome_6);}.cls-9{fill:url(#Gradiente_sem_nome_7);}.cls-10{fill:url(#Gradiente_sem_nome_8);}.cls-11{fill:url(#Gradiente_sem_nome_9);}.cls-12{fill:url(#Gradiente_sem_nome_10);}.cls-13{fill:url(#Gradiente_sem_nome_11);}.cls-14{fill:url(#Gradiente_sem_nome_12);}.cls-15{fill:url(#Gradiente_sem_nome_13);}.cls-16{fill:url(#Gradiente_sem_nome_14);}.cls-17{fill:url(#Gradiente_sem_nome_15);}.cls-18{fill:url(#Gradiente_sem_nome_16);}.cls-19{fill:url(#Gradiente_sem_nome_17);}.cls-20{fill:url(#Gradiente_sem_nome_18);}.cls-21{fill:url(#Gradiente_sem_nome_19);}.cls-22{fill:url(#Gradiente_sem_nome_20);}.cls-23{fill:url(#Gradiente_sem_nome_21);}.cls-24{fill:url(#Gradiente_sem_nome_22);}.cls-25{fill:url(#Gradiente_sem_nome_23);}.cls-26{fill:url(#Gradiente_sem_nome_24);}.cls-27{clip-path:url(#clip-path-2);}.cls-28{fill:url(#Gradiente_sem_nome_25);}.cls-29{fill:url(#Gradiente_sem_nome_26);}.cls-30{fill:url(#Gradiente_sem_nome_27);}.cls-31{fill:url(#Gradiente_sem_nome_28);}.cls-32{fill:url(#Gradiente_sem_nome_29);}.cls-33{fill:url(#Gradiente_sem_nome_30);}.cls-34{fill:url(#Gradiente_sem_nome_31);}.cls-35{fill:url(#Gradiente_sem_nome_32);}.cls-36{fill:url(#Gradiente_sem_nome_33);}.cls-37{fill:url(#Gradiente_sem_nome_34);}.cls-38{fill:url(#Gradiente_sem_nome_35);}.cls-39{fill:url(#Gradiente_sem_nome_36);}.cls-40{fill:url(#Gradiente_sem_nome_37);}.cls-41{fill:url(#Gradiente_sem_nome_38);}.cls-42{fill:url(#Gradiente_sem_nome_39);}.cls-43{fill:url(#Gradiente_sem_nome_40);}.cls-44{fill:url(#Gradiente_sem_nome_41);}.cls-45{fill:url(#Gradiente_sem_nome_42);}.cls-46{fill:url(#Gradiente_sem_nome_43);}.cls-47{fill:url(#Gradiente_sem_nome_44);}.cls-48{fill:url(#Gradiente_sem_nome_45);}.cls-49{fill:url(#Gradiente_sem_nome_46);}.cls-50{fill:url(#Gradiente_sem_nome_47);}.cls-51{fill:url(#Gradiente_sem_nome_48);}.cls-52{fill:url(#Gradiente_sem_nome_49);}.cls-53{fill:url(#Gradiente_sem_nome_50);}.cls-54{fill:url(#Gradiente_sem_nome_51);}.cls-55{fill:url(#Gradiente_sem_nome_52);}.cls-56{fill:url(#Gradiente_sem_nome_53);}.cls-57{fill:url(#Gradiente_sem_nome_54);}.cls-58{fill:url(#Gradiente_sem_nome_55);}.cls-59{fill:url(#Gradiente_sem_nome_56);}.cls-60{fill:url(#Gradiente_sem_nome_57);}.cls-61{fill:url(#Gradiente_sem_nome_58);}.cls-62{fill:url(#Gradiente_sem_nome_59);}.cls-63{fill:url(#Gradiente_sem_nome_60);}.cls-64{fill:url(#Gradiente_sem_nome_61);}.cls-65{fill:url(#Gradiente_sem_nome_62);}.cls-66{fill:url(#Gradiente_sem_nome_63);}.cls-67{fill:url(#Gradiente_sem_nome_64);}.cls-68{fill:url(#Gradiente_sem_nome_65);}.cls-69{fill:url(#Gradiente_sem_nome_66);}.cls-70{fill:url(#Gradiente_sem_nome_67);}.cls-71{fill:url(#Gradiente_sem_nome_68);}.cls-72{fill:url(#Gradiente_sem_nome_69);}.cls-73{fill:url(#Gradiente_sem_nome_70);}.cls-74{fill:url(#Gradiente_sem_nome_71);}.cls-75{fill:url(#Gradiente_sem_nome_72);}.cls-76{fill:url(#Gradiente_sem_nome_73);}.cls-77{fill:url(#Gradiente_sem_nome_74);}.cls-78{fill:url(#Gradiente_sem_nome_75);}.cls-79{fill:url(#Gradiente_sem_nome_76);}.cls-80{fill:url(#Gradiente_sem_nome_77);}.cls-81{fill:url(#Gradiente_sem_nome_78);}.cls-82{fill:url(#Gradiente_sem_nome_79);}</style><clipPath id="clip-path" transform="translate(0 0)"><rect class="cls-1" x="741.27" y="11.72" width="162" height="183.97"/></clipPath><linearGradient id="Gradiente_sem_nome" x1="998.91" y1="-217.04" x2="1112.49" y2="-213.91" gradientTransform="matrix(1, 0, 0, -1, -209.73, -111.87)" gradientUnits="userSpaceOnUse"><stop offset="0" stop-color="#ff3eff"/><stop offset="1" stop-color="#7519ff"/></linearGradient><linearGradient id="Gradiente_sem_nome_2" x1="997.64" y1="-171.01" x2="1111.22" y2="-167.89" xlink:href="#Gradiente_sem_nome"/><linearGradient id="Gradiente_sem_nome_3" x1="998.93" y1="-217.58" x2="1112.5" y2="-214.45" xlink:href="#Gradiente_sem_nome"/><linearGradient id="Gradiente_sem_nome_4" x1="997.09" y1="-150.77" x2="1110.67" y2="-147.65" xlink:href="#Gradiente_sem_nome"/><linearGradient id="Gradiente_sem_nome_5" x1="998.54" y1="-203.59" x2="1112.12" y2="-200.46" xlink:href="#Gradiente_sem_nome"/><linearGradient id="Gradiente_sem_nome_6" x1="998.78" y1="-212.3" x2="1112.36" y2="-209.18" xlink:href="#Gradiente_sem_nome"/><linearGradient id="Gradiente_sem_nome_7" x1="998.35" y1="-196.81" x2="1111.93" y2="-193.69" xlink:href="#Gradiente_sem_nome"/><linearGradient id="Gradiente_sem_nome_8" x1="998.44" y1="-200.01" x2="1112.02" y2="-196.89" xlink:href="#Gradiente_sem_nome"/><linearGradient id="Gradiente_sem_nome_9" x1="998.13" y1="-188.67" x2="1111.71" y2="-185.54" xlink:href="#Gradiente_sem_nome"/><linearGradient id="Gradiente_sem_nome_10" x1="998.61" y1="-206.08" x2="1112.19" y2="-202.96" xlink:href="#Gradiente_sem_nome"/><linearGradient id="Gradiente_sem_nome_11" x1="999.03" y1="-221.31" x2="1112.61" y2="-218.18" xlink:href="#Gradiente_sem_nome"/><linearGradient id="Gradiente_sem_nome_12" x1="998.67" y1="-208.36" x2="1112.25" y2="-205.23" xlink:href="#Gradiente_sem_nome"/><linearGradient id="Gradiente_sem_nome_13" x1="998.49" y1="-201.6" x2="1112.06" y2="-198.48" xlink:href="#Gradiente_sem_nome"/><linearGradient id="Gradiente_sem_nome_14" x1="999.05" y1="-222.01" x2="1112.63" y2="-218.88" xlink:href="#Gradiente_sem_nome"/><linearGradient id="Gradiente_sem_nome_15" x1="997.29" y1="-158.23" x2="1110.87" y2="-155.1" xlink:href="#Gradiente_sem_nome"/><linearGradient id="Gradiente_sem_nome_16" x1="998.89" y1="-216.47" x2="1112.47" y2="-213.34" xlink:href="#Gradiente_sem_nome"/><linearGradient id="Gradiente_sem_nome_17" x1="998.94" y1="-218.04" x2="1112.52" y2="-214.92" xlink:href="#Gradiente_sem_nome"/><linearGradient id="Gradiente_sem_nome_18" x1="998.72" y1="-209.95" x2="1112.29" y2="-206.83" xlink:href="#Gradiente_sem_nome"/><linearGradient id="Gradiente_sem_nome_19" x1="996.77" y1="-139.29" x2="1110.35" y2="-136.16" xlink:href="#Gradiente_sem_nome"/><linearGradient id="Gradiente_sem_nome_20" x1="998.4" y1="-198.6" x2="1111.98" y2="-195.47" xlink:href="#Gradiente_sem_nome"/><linearGradient id="Gradiente_sem_nome_21" x1="998.49" y1="-201.93" x2="1112.07" y2="-198.8" xlink:href="#Gradiente_sem_nome"/><linearGradient id="Gradiente_sem_nome_22" x1="995.84" y1="-105.57" x2="1109.42" y2="-102.44" xlink:href="#Gradiente_sem_nome"/><linearGradient id="Gradiente_sem_nome_23" x1="997.09" y1="-150.87" x2="1110.67" y2="-147.75" xlink:href="#Gradiente_sem_nome"/><linearGradient id="Gradiente_sem_nome_24" x1="996.09" y1="-114.35" x2="1109.66" y2="-111.22" xlink:href="#Gradiente_sem_nome"/><clipPath id="clip-path-2" transform="translate(0 0)"><rect class="cls-1" x="393.27" y="-0.06" width="10" height="4.78"/></clipPath><linearGradient id="Gradiente_sem_nome_25" x1="995.77" y1="-103.06" x2="1109.35" y2="-99.94" xlink:href="#Gradiente_sem_nome"/><linearGradient id="Gradiente_sem_nome_26" x1="997.37" y1="-160.94" x2="1110.95" y2="-157.82" xlink:href="#Gradiente_sem_nome"/><linearGradient id="Gradiente_sem_nome_27" x1="996.29" y1="-121.65" x2="1109.86" y2="-118.52" xlink:href="#Gradiente_sem_nome"/><linearGradient id="Gradiente_sem_nome_28" x1="996.12" y1="-115.79" x2="1109.7" y2="-112.67" xlink:href="#Gradiente_sem_nome"/><linearGradient id="Gradiente_sem_nome_29" x1="996.43" y1="-126.89" x2="1110.01" y2="-123.77" xlink:href="#Gradiente_sem_nome"/><linearGradient id="Gradiente_sem_nome_30" x1="996.16" y1="-117.07" x2="1109.74" y2="-113.94" xlink:href="#Gradiente_sem_nome"/><linearGradient id="Gradiente_sem_nome_31" x1="997.75" y1="-174.88" x2="1111.33" y2="-171.76" xlink:href="#Gradiente_sem_nome"/><linearGradient id="Gradiente_sem_nome_32" x1="998" y1="-183.96" x2="1111.58" y2="-180.83" xlink:href="#Gradiente_sem_nome"/><linearGradient id="Gradiente_sem_nome_33" x1="998.25" y1="-193.15" x2="1111.83" y2="-190.03" xlink:href="#Gradiente_sem_nome"/><linearGradient id="Gradiente_sem_nome_34" x1="998.45" y1="-200.41" x2="1112.03" y2="-197.29" xlink:href="#Gradiente_sem_nome"/><linearGradient id="Gradiente_sem_nome_35" x1="997.43" y1="-163.28" x2="1111.01" y2="-160.15" xlink:href="#Gradiente_sem_nome"/><linearGradient id="Gradiente_sem_nome_36" x1="997.61" y1="-169.95" x2="1111.19" y2="-166.83" xlink:href="#Gradiente_sem_nome"/><linearGradient id="Gradiente_sem_nome_37" x1="997.21" y1="-155.12" x2="1110.78" y2="-151.99" xlink:href="#Gradiente_sem_nome"/><linearGradient id="Gradiente_sem_nome_38" x1="997.94" y1="-181.89" x2="1111.52" y2="-178.76" xlink:href="#Gradiente_sem_nome"/><linearGradient id="Gradiente_sem_nome_39" x1="997.56" y1="-168.04" x2="1111.14" y2="-164.92" xlink:href="#Gradiente_sem_nome"/><linearGradient id="Gradiente_sem_nome_40" x1="997.5" y1="-165.69" x2="1111.08" y2="-162.57" xlink:href="#Gradiente_sem_nome"/><linearGradient id="Gradiente_sem_nome_41" x1="999.27" y1="-230.27" x2="1112.85" y2="-227.14" xlink:href="#Gradiente_sem_nome"/><linearGradient id="Gradiente_sem_nome_42" x1="999.26" y1="-229.78" x2="1112.84" y2="-226.66" xlink:href="#Gradiente_sem_nome"/><linearGradient id="Gradiente_sem_nome_43" x1="998.36" y1="-196.86" x2="1111.93" y2="-193.74" xlink:href="#Gradiente_sem_nome"/><linearGradient id="Gradiente_sem_nome_44" x1="997.88" y1="-179.72" x2="1111.46" y2="-176.59" xlink:href="#Gradiente_sem_nome"/><linearGradient id="Gradiente_sem_nome_45" x1="999.89" y1="-252.69" x2="1113.47" y2="-249.56" xlink:href="#Gradiente_sem_nome"/><linearGradient id="Gradiente_sem_nome_46" x1="999.05" y1="-222.04" x2="1112.63" y2="-218.92" xlink:href="#Gradiente_sem_nome"/><linearGradient id="Gradiente_sem_nome_47" x1="999.67" y1="-244.69" x2="1113.25" y2="-241.57" xlink:href="#Gradiente_sem_nome"/><linearGradient id="Gradiente_sem_nome_48" x1="1000.12" y1="-260.94" x2="1113.7" y2="-257.81" xlink:href="#Gradiente_sem_nome"/><linearGradient id="Gradiente_sem_nome_49" x1="998.75" y1="-211.12" x2="1112.33" y2="-207.99" xlink:href="#Gradiente_sem_nome"/><linearGradient id="Gradiente_sem_nome_50" x1="1000.05" y1="-258.38" x2="1113.63" y2="-255.26" xlink:href="#Gradiente_sem_nome"/><linearGradient id="Gradiente_sem_nome_51" x1="996.86" y1="-142.42" x2="1110.44" y2="-139.29" xlink:href="#Gradiente_sem_nome"/><linearGradient id="Gradiente_sem_nome_52" x1="998.67" y1="-208.15" x2="1112.24" y2="-205.03" xlink:href="#Gradiente_sem_nome"/><linearGradient id="Gradiente_sem_nome_53" x1="998.72" y1="-210.12" x2="1112.3" y2="-206.99" xlink:href="#Gradiente_sem_nome"/><linearGradient id="Gradiente_sem_nome_54" x1="998.67" y1="-208.18" x2="1112.24" y2="-205.06" xlink:href="#Gradiente_sem_nome"/><linearGradient id="Gradiente_sem_nome_55" x1="998.82" y1="-213.83" x2="1112.4" y2="-210.7" xlink:href="#Gradiente_sem_nome"/><linearGradient id="Gradiente_sem_nome_56" x1="998.72" y1="-210.01" x2="1112.3" y2="-206.89" xlink:href="#Gradiente_sem_nome"/><linearGradient id="Gradiente_sem_nome_57" x1="998.97" y1="-219.37" x2="1112.55" y2="-216.25" xlink:href="#Gradiente_sem_nome"/><linearGradient id="Gradiente_sem_nome_58" x1="999.42" y1="-235.68" x2="1113" y2="-232.55" xlink:href="#Gradiente_sem_nome"/><linearGradient id="Gradiente_sem_nome_59" x1="999.18" y1="-226.86" x2="1112.76" y2="-223.73" xlink:href="#Gradiente_sem_nome"/><linearGradient id="Gradiente_sem_nome_60" x1="998.82" y1="-213.76" x2="1112.4" y2="-210.63" xlink:href="#Gradiente_sem_nome"/><linearGradient id="Gradiente_sem_nome_61" x1="999.47" y1="-237.25" x2="1113.04" y2="-234.13" xlink:href="#Gradiente_sem_nome"/><linearGradient id="Gradiente_sem_nome_62" x1="998.97" y1="-219.19" x2="1112.55" y2="-216.06" xlink:href="#Gradiente_sem_nome"/><linearGradient id="Gradiente_sem_nome_63" x1="999.39" y1="-234.29" x2="1112.96" y2="-231.16" xlink:href="#Gradiente_sem_nome"/><linearGradient id="Gradiente_sem_nome_64" x1="999.27" y1="-229.94" x2="1112.84" y2="-226.82" xlink:href="#Gradiente_sem_nome"/><linearGradient id="Gradiente_sem_nome_65" x1="999.53" y1="-239.43" x2="1113.1" y2="-236.31" xlink:href="#Gradiente_sem_nome"/><linearGradient id="Gradiente_sem_nome_66" x1="996.46" y1="-127.83" x2="1110.03" y2="-124.71" xlink:href="#Gradiente_sem_nome"/><linearGradient id="Gradiente_sem_nome_67" x1="999.1" y1="-223.99" x2="1112.68" y2="-220.86" xlink:href="#Gradiente_sem_nome"/><linearGradient id="Gradiente_sem_nome_68" x1="996.32" y1="-123.03" x2="1109.9" y2="-119.91" xlink:href="#Gradiente_sem_nome"/><linearGradient id="Gradiente_sem_nome_69" x1="998.24" y1="-192.72" x2="1111.82" y2="-189.59" xlink:href="#Gradiente_sem_nome"/><linearGradient id="Gradiente_sem_nome_70" x1="995.92" y1="-108.45" x2="1109.5" y2="-105.32" xlink:href="#Gradiente_sem_nome"/><linearGradient id="Gradiente_sem_nome_71" x1="998.63" y1="-206.83" x2="1112.21" y2="-203.7" xlink:href="#Gradiente_sem_nome"/><linearGradient id="Gradiente_sem_nome_72" x1="999.4" y1="-234.67" x2="1112.97" y2="-231.54" xlink:href="#Gradiente_sem_nome"/><linearGradient id="Gradiente_sem_nome_73" x1="999.49" y1="-238" x2="1113.07" y2="-234.88" xlink:href="#Gradiente_sem_nome"/><linearGradient id="Gradiente_sem_nome_74" x1="1000.1" y1="-260.34" x2="1113.68" y2="-257.21" xlink:href="#Gradiente_sem_nome"/><linearGradient id="Gradiente_sem_nome_75" x1="1000" y1="-256.65" x2="1113.58" y2="-253.53" xlink:href="#Gradiente_sem_nome"/><linearGradient id="Gradiente_sem_nome_76" x1="996.67" y1="-135.64" x2="1110.25" y2="-132.52" xlink:href="#Gradiente_sem_nome"/><linearGradient id="Gradiente_sem_nome_77" x1="999.82" y1="-249.93" x2="1113.39" y2="-246.8" xlink:href="#Gradiente_sem_nome"/><linearGradient id="Gradiente_sem_nome_78" x1="997.79" y1="-176.46" x2="1111.37" y2="-173.34" xlink:href="#Gradiente_sem_nome"/><linearGradient id="Gradiente_sem_nome_79" x1="996.9" y1="-144.05" x2="1110.48" y2="-140.92" xlink:href="#Gradiente_sem_nome"/></defs><title>aviaocoracaodir</title><g id="g1086"><g class="cls-2"><g id="g16"><path id="path14" class="cls-3" d="M902.64,103.81A7,7,0,0,0,899,97.68l.57-15.4c.09-2.45-2.28-4.42-5.16-4.3a1.68,1.68,0,0,0-1.72,1.49l1.23,17.58a7.06,7.06,0,0,0-2.28,1c-2-10.7-10.79-12.71-32.84-13.09L858,32.8a20.58,20.58,0,0,0-15.67-19.66l-2.75-.67a3.85,3.85,0,0,0-4.74,3.24l-3.43,25.71-6.85.43a1.53,1.53,0,0,0-1.44,1.63l.47,7.57a1.54,1.54,0,0,0,1.63,1.45l4.75-.3-2,14.87-5,.29A1.54,1.54,0,0,0,821.55,69l.47,7.58A1.52,1.52,0,0,0,823.64,78l2.86-.17-1.14,8.59C809.57,89.2,792,95.1,763.53,99.17c0-5.2.05-10-.19-14-.51-8.59-6.33-12.64-10.05-7-3.38,5.12-1.48,13-1.14,22.46-2.91.32-5.92.64-9,.91-1.88.17-1.87,4.38,0,4.55q4.64.42,9,.91c-.43,9.21-2.08,17.54,1.17,22.48,3.73,5.64,9.55,1.59,10.06-7,.25-4,.21-8.85.19-14.07,28.13,3.94,46.84,9.59,61.78,12.46l1.19,8.89-2.86-.17A1.51,1.51,0,0,0,822,131l-.47,7.58a1.53,1.53,0,0,0,1.43,1.63l5,.31,2,14.86-4.75-.29a1.54,1.54,0,0,0-1.63,1.44l-.47,7.57a1.54,1.54,0,0,0,1.44,1.63l6.85.43,3.43,25.71a3.85,3.85,0,0,0,4.74,3.24l2.75-.67A20.58,20.58,0,0,0,858,174.82l.82-52.21c22.05-.37,30.85-2.39,32.84-13.09a6.74,6.74,0,0,0,2.34,1.07L892.66,129a1.69,1.69,0,0,0,1.72,1.49c2.88.13,5.25-1.85,5.16-4.31L899,110a7,7,0,0,0,3.69-6.14" transform="translate(0 0)"/></g></g><path id="path18" class="cls-4" d="M166.93,71.57a1.58,1.58,0,0,0-1.1,1.5,1.69,1.69,0,0,0,.08.5,19.35,19.35,0,0,1,.94,5.77,1.59,1.59,0,0,0,3.18,0h0a22.56,22.56,0,0,0-1.1-6.73,1.58,1.58,0,0,0-2-1" transform="translate(0 0)"/><path id="path20" class="cls-5" d="M197.09,121.24q-3.09-.66-6.16-1.39A1.59,1.59,0,0,0,189,121a1.55,1.55,0,0,0,0,.37,1.6,1.6,0,0,0,1.21,1.55q3.12.75,6.25,1.42a1.59,1.59,0,0,0,.66-3.12" transform="translate(0 0)"/><path id="path22" class="cls-6" d="M138,59c.33-.17.68-.33,1-.47a16.43,16.43,0,0,1,4.5-1.13,1.59,1.59,0,0,0-.31-3.16,19.2,19.2,0,0,0-5.4,1.35c-.42.17-.83.36-1.22.55a1.61,1.61,0,0,0-.89,1.43,1.56,1.56,0,0,0,.16.7A1.59,1.59,0,0,0,138,59" transform="translate(0 0)"/><path id="path24" class="cls-7" d="M133.12,108.2c-1.25.09-2.49.13-3.74.13q-1.22,0-2.43-.06a1.58,1.58,0,0,0-1.65,1.53v.06a1.58,1.58,0,0,0,1.51,1.59c.85,0,1.71.06,2.57.06,1.32,0,2.64-.05,4-.14a1.6,1.6,0,0,0,1.47-1.7,1.57,1.57,0,0,0-1.69-1.47" transform="translate(0 0)"/><path id="path26" class="cls-8" d="M178.68,116.65l-6.11-1.71a1.53,1.53,0,0,0-1.89,1.12,1.37,1.37,0,0,0-.05.4,1.69,1.69,0,0,0,1.21,1.58l6,1.67a1.59,1.59,0,1,0,.85-3.06" transform="translate(0 0)"/><path id="path28" class="cls-9" d="M143.62,103.35a49.48,49.48,0,0,1-4.94-3.67,1.59,1.59,0,0,0-2.24.18,1.63,1.63,0,0,0-.37,1,1.56,1.56,0,0,0,.56,1.21,51.72,51.72,0,0,0,5.26,3.92,1.59,1.59,0,0,0,1.73-2.67" transform="translate(0 0)"/><path id="path30" class="cls-10" d="M152.76,103.65a1.58,1.58,0,0,0-2.16-.61,43.7,43.7,0,0,1-5.55,2.57,1.6,1.6,0,0,0-1,1.48,1.41,1.41,0,0,0,.11.57,1.58,1.58,0,0,0,2,.93,43.14,43.14,0,0,0,6-2.78,1.58,1.58,0,0,0,.63-2.16" transform="translate(0 0)"/><path id="path32" class="cls-11" d="M165.82,90.05a1.59,1.59,0,0,0-2.17.59,28.85,28.85,0,0,1-3.53,4.88,1.59,1.59,0,0,0,.13,2.24,1.58,1.58,0,0,0,2.23-.12,31.66,31.66,0,0,0,3.92-5.42,1.58,1.58,0,0,0-.58-2.17" transform="translate(0 0)"/><path id="path34" class="cls-12" d="M160.5,111.22c-2-.69-3.95-1.41-5.87-2.21a1.59,1.59,0,0,0-2.07.87,1.58,1.58,0,0,0,.87,2.07c2,.81,4,1.57,6,2.27a1.58,1.58,0,0,0,2-1,1.56,1.56,0,0,0-1-2" transform="translate(0 0)"/><path id="path36" class="cls-13" d="M215.72,124.06c-2.07-.17-4.15-.38-6.24-.66a1.59,1.59,0,0,0-1.78,1.37c0,.07,0,.14,0,.21a1.59,1.59,0,0,0,1.38,1.58c2.14.27,4.28.51,6.4.67a1.59,1.59,0,0,0,1.71-1.46,1.55,1.55,0,0,0-1.46-1.71" transform="translate(0 0)"/><path id="path38" class="cls-14" d="M342.88,108.63c-2-.85-3.93-1.68-5.91-2.46a1.58,1.58,0,0,0-2.06.89,1.49,1.49,0,0,0-.11.58,1.57,1.57,0,0,0,1,1.48c1.95.78,3.89,1.6,5.84,2.43a1.59,1.59,0,0,0,1.25-2.92" transform="translate(0 0)"/><path id="path40" class="cls-15" d="M324.85,101.88c-2.07-.62-4.15-1.16-6.24-1.64a1.59,1.59,0,0,0-1.9,1.2,1.45,1.45,0,0,0,0,.35,1.59,1.59,0,0,0,1.24,1.55c2,.46,4,1,6,1.59a1.59,1.59,0,0,0,.9-3.05" transform="translate(0 0)"/><path id="path42" class="cls-16" d="M234.4,123.6c-2,.29-4.09.49-6.19.62a1.59,1.59,0,0,0-1.5,1.59v.09a1.59,1.59,0,0,0,1.68,1.49c2.2-.13,4.38-.34,6.46-.64a1.59,1.59,0,0,0-.45-3.15" transform="translate(0 0)"/><path id="path44" class="cls-17" d="M360.26,53.38A1.59,1.59,0,0,0,358.83,55v.15a59.68,59.68,0,0,0,1,6.45,1.57,1.57,0,0,0,1.88,1.22,1.61,1.61,0,0,0,1.24-1.88,55.15,55.15,0,0,1-.93-6.09,1.6,1.6,0,0,0-1.74-1.44" transform="translate(0 0)"/><path id="path46" class="cls-18" d="M360.33,116.31c-1.92-.83-3.87-1.68-5.8-2.54a1.58,1.58,0,0,0-2.1.8,1.69,1.69,0,0,0-.14.65,1.57,1.57,0,0,0,.95,1.45c1.95.87,3.9,1.73,5.83,2.56a1.59,1.59,0,0,0,1.26-2.92" transform="translate(0 0)"/><path id="path48" class="cls-19" d="M252.2,118.38c-2,.91-3.9,1.67-5.76,2.32a1.58,1.58,0,0,0-1.06,1.5,2.4,2.4,0,0,0,.07.52,1.6,1.6,0,0,0,2,1c2-.68,3.92-1.47,6-2.41a1.6,1.6,0,1,0-1.31-2.91" transform="translate(0 0)"/><path id="path50" class="cls-20" d="M268.93,109.5l-5.55,3.13a1.57,1.57,0,0,0-.82,1.39,1.49,1.49,0,0,0,.21.77,1.57,1.57,0,0,0,2.16.6l5.54-3.1a1.59,1.59,0,0,0-1.54-2.79" transform="translate(0 0)"/><path id="path52" class="cls-21" d="M361.84,34.44A1.6,1.6,0,0,0,360,35.68l-.19.92c-.36,1.87-.63,3.7-.82,5.51a.47.47,0,0,0,0,.17,1.59,1.59,0,0,0,3.17.17q.28-2.6.79-5.22l.18-.91a1.6,1.6,0,0,0-1.23-1.88" transform="translate(0 0)"/><path id="path54" class="cls-22" d="M305.74,98.49c-.71,0-1.42,0-2.12,0-1.47,0-2.95,0-4.41.18a1.59,1.59,0,0,0-1.47,1.58.57.57,0,0,0,0,.13,1.59,1.59,0,0,0,1.71,1.45c1.39-.11,2.77-.16,4.16-.16.67,0,1.34,0,2,0a1.6,1.6,0,0,0,1.66-1.53,1.63,1.63,0,0,0-1.55-1.65" transform="translate(0 0)"/><path id="path56" class="cls-23" d="M286.42,101.28c-2,.66-3.94,1.44-6.05,2.37a1.6,1.6,0,0,0-.95,1.46,1.64,1.64,0,0,0,.14.64,1.6,1.6,0,0,0,2.1.81c2-.9,3.91-1.64,5.78-2.27a1.59,1.59,0,0,0-1-3" transform="translate(0 0)"/><path id="path58" class="cls-24" d="M413.75,4.51a54.53,54.53,0,0,1,5.91,1.73,1.59,1.59,0,1,0,1.07-3,56.72,56.72,0,0,0-6.27-1.84,1.59,1.59,0,0,0-1.91,1.18,1.58,1.58,0,0,0,0,.37,1.58,1.58,0,0,0,1.23,1.55" transform="translate(0 0)"/><path id="path60" class="cls-25" d="M466.79,51.34q1.66-2.69,3.4-5.34a1.59,1.59,0,0,0-2.67-1.73c-1.15,1.78-2.3,3.58-3.43,5.38a1.59,1.59,0,0,0,2.7,1.69" transform="translate(0 0)"/><path id="path62" class="cls-26" d="M431.91,12.43c1.34.89,2.61,1.84,3.86,2.83a1.59,1.59,0,0,0,2-2.48c-1.3-1-2.66-2-4.05-3L432.46,9a1.59,1.59,0,0,0-2.2.47,1.62,1.62,0,0,0,.47,2.21l1.18.77" transform="translate(0 0)"/><g class="cls-27"><g id="g66"><path id="path64" class="cls-28" d="M395.41,3.7a46.89,46.89,0,0,1,6.12-.53,1.62,1.62,0,0,0,1.56-1.61A1.6,1.6,0,0,0,401.46,0a45,45,0,0,0-6.53.57,1.59,1.59,0,0,0-1.35,1.57,2.11,2.11,0,0,0,0,.25,1.57,1.57,0,0,0,1.81,1.31" transform="translate(0 0)"/></g></g><path id="path68" class="cls-29" d="M558.26,52.34a49.7,49.7,0,0,1,.31,5.61v.56a1.59,1.59,0,1,0,3.18,0V58a53.85,53.85,0,0,0-.33-6,1.59,1.59,0,0,0-3.17.17,1.15,1.15,0,0,0,0,.18" transform="translate(0 0)"/><path id="path70" class="cls-30" d="M365,25.45a1.58,1.58,0,0,0,2.14-.7,44.82,44.82,0,0,1,3.16-5.25,1.58,1.58,0,0,0-.39-2.21,1.61,1.61,0,0,0-2.22.38,48.35,48.35,0,0,0-3.38,5.64,1.58,1.58,0,0,0,.69,2.14" transform="translate(0 0)"/><path id="path72" class="cls-31" d="M506.64,13.74a39.52,39.52,0,0,1,6-1.28A1.64,1.64,0,0,0,514,10.68a1.59,1.59,0,0,0-1.79-1.37,41.3,41.3,0,0,0-6.45,1.39,1.58,1.58,0,0,0-1.13,1.53,1.5,1.5,0,0,0,.07.45,1.57,1.57,0,0,0,2,1.06" transform="translate(0 0)"/><path id="path74" class="cls-32" d="M545.65,24.93a1.59,1.59,0,0,0,2.28-2.22,49.2,49.2,0,0,0-4.88-4.4,1.59,1.59,0,0,0-2,2.51,45.12,45.12,0,0,1,4.56,4.11" transform="translate(0 0)"/><path id="path76" class="cls-33" d="M524.69,12.94a36.4,36.4,0,0,1,5.82,1.78,1.6,1.6,0,0,0,1.17-3,41.68,41.68,0,0,0-6.32-1.92,1.59,1.59,0,0,0-1.89,1.22,2,2,0,0,0,0,.34,1.59,1.59,0,0,0,1.25,1.55" transform="translate(0 0)"/><path id="path78" class="cls-34" d="M63.09,82.94q-2.91-1.38-5.86-2.66a1.58,1.58,0,0,0-2.08.85,1.46,1.46,0,0,0-.13.61,1.56,1.56,0,0,0,1,1.46c1.91.83,3.82,1.7,5.71,2.61a1.59,1.59,0,1,0,1.38-2.87" transform="translate(0 0)"/><path id="path80" class="cls-35" d="M80.07,91.77l-5.6-3a1.59,1.59,0,0,0-2.15.66,1.55,1.55,0,0,0-.19.75,1.58,1.58,0,0,0,.84,1.4l5.59,3a1.59,1.59,0,0,0,2.16-.65,1.63,1.63,0,0,0-.65-2.16" transform="translate(0 0)"/><path id="path82" class="cls-36" d="M97,100.31c-1.92-.86-3.81-1.75-5.69-2.68a1.59,1.59,0,0,0-2.12.72,1.52,1.52,0,0,0-.16.7,1.6,1.6,0,0,0,.88,1.44q2.87,1.41,5.81,2.73a1.6,1.6,0,0,0,2.1-.81,1.58,1.58,0,0,0-.82-2.1" transform="translate(0 0)"/><path id="path84" class="cls-37" d="M114.69,106.49c-2-.47-4-1-6-1.68a1.59,1.59,0,0,0-2,1,1.84,1.84,0,0,0-.07.47,1.61,1.61,0,0,0,1.1,1.52q3.09,1,6.23,1.74a1.59,1.59,0,0,0,1.92-1.18,1.62,1.62,0,0,0-1.17-1.92" transform="translate(0 0)"/><path id="path86" class="cls-38" d="M126.48,74.16a1.58,1.58,0,0,0,1.83-1.28,22.27,22.27,0,0,1,1.77-5.66,1.59,1.59,0,0,0-2.88-1.35,25.54,25.54,0,0,0-2,6.45,1.24,1.24,0,0,0,0,.27,1.59,1.59,0,0,0,1.32,1.57" transform="translate(0 0)"/><path id="path88" class="cls-39" d="M6.61,76.72a38.62,38.62,0,0,0-5.86,3A1.57,1.57,0,0,0,0,81.11,1.63,1.63,0,0,0,.24,82a1.6,1.6,0,0,0,2.19.5,37.84,37.84,0,0,1,5.41-2.8,1.59,1.59,0,1,0-1.23-2.93" transform="translate(0 0)"/><path id="path90" class="cls-40" d="M159.56,63.61a1.58,1.58,0,0,0,2.24,0,1.6,1.6,0,0,0,0-2.25,28,28,0,0,0-5.4-4,1.59,1.59,0,0,0-2.17.59,1.55,1.55,0,0,0-.21.78,1.62,1.62,0,0,0,.8,1.39,24.64,24.64,0,0,1,4.78,3.56" transform="translate(0 0)"/><path id="path92" class="cls-41" d="M127,83.67a1.59,1.59,0,0,0-1.18,1.53,1.84,1.84,0,0,0,0,.41,31.1,31.1,0,0,0,2.4,6.25,1.59,1.59,0,0,0,2.83-1.45,27.72,27.72,0,0,1-2.16-5.62A1.59,1.59,0,0,0,127,83.67" transform="translate(0 0)"/><path id="path94" class="cls-42" d="M45.09,75.91c-2.08-.59-4.21-1.1-6.3-1.5a1.57,1.57,0,0,0-1.86,1.25,1.17,1.17,0,0,0,0,.32,1.59,1.59,0,0,0,1.29,1.55c2,.39,4,.87,6,1.44a1.59,1.59,0,1,0,.86-3.06" transform="translate(0 0)"/><path id="path96" class="cls-43" d="M19.32,73.48a1.6,1.6,0,0,0-1.4,1.58,1,1,0,0,0,0,.18,1.57,1.57,0,0,0,1.76,1.4,55.87,55.87,0,0,1,6.16-.33V73.12a57.89,57.89,0,0,0-6.52.36" transform="translate(0 0)"/><path id="path98" class="cls-44" d="M424.25,128.89c-1.78-1.1-3.58-2.23-5.36-3.37a1.59,1.59,0,0,0-2.2.48,1.57,1.57,0,0,0-.25.86,1.6,1.6,0,0,0,.73,1.33c1.81,1.16,3.61,2.29,5.42,3.41a1.59,1.59,0,0,0,1.66-2.71" transform="translate(0 0)"/><path id="path100" class="cls-45" d="M510,124a1.6,1.6,0,0,0-2.07-.88c-1.93.8-3.89,1.53-5.86,2.23a1.59,1.59,0,0,0-1.08,1.5,1.83,1.83,0,0,0,.09.52,1.59,1.59,0,0,0,2,1c2-.71,4-1.47,6-2.28A1.6,1.6,0,0,0,510,124" transform="translate(0 0)"/><path id="path102" class="cls-46" d="M552.59,87.48a1.57,1.57,0,0,0-2.16.61c-1,1.79-2.12,3.56-3.29,5.27a1.54,1.54,0,0,0-.28.89,1.63,1.63,0,0,0,.68,1.32,1.6,1.6,0,0,0,2.21-.41c1.22-1.78,2.39-3.64,3.44-5.52a1.59,1.59,0,0,0-.6-2.16" transform="translate(0 0)"/><path id="path104" class="cls-47" d="M559,69.57a1.59,1.59,0,0,0-1.9,1.2c-.46,2-1,4-1.67,6a1.42,1.42,0,0,0-.08.5,1.59,1.59,0,0,0,3.1.5c.68-2,1.27-4.16,1.76-6.27A1.66,1.66,0,0,0,559,69.57" transform="translate(0 0)"/><path id="path106" class="cls-48" d="M548.78,144.82c-1.92.86-3.83,1.7-5.78,2.49a1.58,1.58,0,0,0-1,1.48,1.39,1.39,0,0,0,.12.59,1.58,1.58,0,0,0,2.06.88q3-1.22,5.9-2.55a1.59,1.59,0,1,0-1.31-2.89" transform="translate(0 0)"/><path id="path108" class="cls-49" d="M526.77,115a1.6,1.6,0,0,0-2.2-.5c-1.74,1.13-3.54,2.19-5.38,3.2a1.59,1.59,0,0,0,1.54,2.79q2.85-1.57,5.56-3.3a1.58,1.58,0,0,0,.48-2.19" transform="translate(0 0)"/><path id="path110" class="cls-50" d="M565.6,136.13c-1.84,1-3.69,2.06-5.55,3.05a1.59,1.59,0,1,0,1.5,2.8c1.88-1,3.75-2,5.6-3.07a1.59,1.59,0,0,0,.6-2.16,1.57,1.57,0,0,0-2.15-.62" transform="translate(0 0)"/><path id="path112" class="cls-51" d="M512.72,155q-3.11.33-6.24.49A1.59,1.59,0,0,0,505,157v.08a1.61,1.61,0,0,0,1.67,1.51q3.23-.16,6.42-.5a1.59,1.59,0,0,0-.34-3.17" transform="translate(0 0)"/><path id="path114" class="cls-52" d="M539.16,102.88q-2.19,2.2-4.56,4.23a1.65,1.65,0,0,0-.55,1.21,1.63,1.63,0,0,0,.38,1,1.59,1.59,0,0,0,2.24.16q2.48-2.1,4.74-4.41a1.56,1.56,0,0,0,0-2.24,1.58,1.58,0,0,0-2.25,0" transform="translate(0 0)"/><path id="path116" class="cls-53" d="M531.15,151.41c-2,.57-4,1.09-6.06,1.54a1.58,1.58,0,0,0-1.25,1.55,2,2,0,0,0,0,.34,1.58,1.58,0,0,0,1.89,1.21c2.1-.47,4.18-1,6.25-1.58a1.58,1.58,0,0,0,1.1-2,1.61,1.61,0,0,0-2-1.09" transform="translate(0 0)"/><path id="path118" class="cls-54" d="M557.5,41.3a1.59,1.59,0,0,0,.93-2c-.38-1-.79-2-1.23-3s-1-2-1.48-3a1.6,1.6,0,0,0-2.16-.64,1.55,1.55,0,0,0-.83,1.39,1.59,1.59,0,0,0,.19.76c.49.92,1,1.85,1.38,2.8s.8,1.85,1.15,2.79a1.59,1.59,0,0,0,2,.93" transform="translate(0 0)"/><path id="path120" class="cls-55" d="M672.73,97.74c-2.14.12-4.28.28-6.4.48a1.6,1.6,0,0,0-1.44,1.59V100a1.61,1.61,0,0,0,1.74,1.44c2.09-.19,4.17-.35,6.28-.48a1.65,1.65,0,0,0,1.5-1.68,1.58,1.58,0,0,0-1.68-1.49" transform="translate(0 0)"/><path id="path122" class="cls-56" d="M711.07,99.31c-2.12-.31-4.24-.57-6.36-.81A1.6,1.6,0,0,0,703,99.92a.91.91,0,0,0,0,.17,1.59,1.59,0,0,0,1.41,1.58c2.09.22,4.18.49,6.26.79a1.59,1.59,0,0,0,1.79-1.36,1.56,1.56,0,0,0-1.34-1.79" transform="translate(0 0)"/><path id="path124" class="cls-57" d="M691.93,97.56c-2.14-.08-4.27-.14-6.41-.16A1.57,1.57,0,0,0,683.93,99v0a1.59,1.59,0,0,0,1.57,1.59c2.09,0,4.2.06,6.31.15a1.6,1.6,0,0,0,1.65-1.53,1.64,1.64,0,0,0-1.53-1.65" transform="translate(0 0)"/><path id="path126" class="cls-58" d="M728.86,102.74q-2.58-.63-5.16-1.18a1.58,1.58,0,0,0-1.89,1.22,1.86,1.86,0,0,0,0,.33,1.58,1.58,0,0,0,1.26,1.55c1.7.37,3.38.75,5.07,1.17a1.6,1.6,0,0,0,1.93-1.17,1.63,1.63,0,0,0-1.17-1.92" transform="translate(0 0)"/><path id="path128" class="cls-59" d="M653.61,99.82c-2.11.34-4.22.71-6.31,1.12A1.6,1.6,0,0,0,646,102.5a1,1,0,0,0,0,.3,1.57,1.57,0,0,0,1.86,1.26c2.05-.4,4.12-.76,6.2-1.1a1.62,1.62,0,0,0,1.32-1.81,1.58,1.58,0,0,0-1.82-1.33" transform="translate(0 0)"/><path id="path130" class="cls-60" d="M616.5,109.66c-2,.77-4,1.54-6,2.38a1.58,1.58,0,0,0-1,1.46,1.53,1.53,0,0,0,.13.62,1.6,1.6,0,0,0,2.08.85q2.9-1.22,5.85-2.33a1.59,1.59,0,0,0-1.12-3" transform="translate(0 0)"/><path id="path132" class="cls-61" d="M582.1,126.6l-5.51,3.2a1.6,1.6,0,0,0-.79,1.38,1.5,1.5,0,0,0,.22.79,1.59,1.59,0,0,0,2.18.57l5.49-3.18a1.59,1.59,0,0,0-1.59-2.76" transform="translate(0 0)"/><path id="path134" class="cls-62" d="M598.89,117.39q-2.85,1.45-5.67,3a1.59,1.59,0,0,0-.83,1.4,1.54,1.54,0,0,0,.18.75,1.59,1.59,0,0,0,2.15.65c1.85-1,3.73-2,5.6-2.92a1.59,1.59,0,0,0,.71-2.13,1.61,1.61,0,0,0-2.14-.72" transform="translate(0 0)"/><path id="path136" class="cls-63" d="M634.8,103.81c-2,.54-4.12,1.12-6.16,1.74a1.57,1.57,0,0,0-1.13,1.52,1.41,1.41,0,0,0,.07.45,1.58,1.58,0,0,0,2,1.07q3-.91,6.07-1.71a1.59,1.59,0,0,0-.82-3.07" transform="translate(0 0)"/><path id="path138" class="cls-64" d="M473.19,133.65a1.6,1.6,0,0,0-1.78-1.36q-3.14.41-6.27.71a1.59,1.59,0,0,0-1.43,1.59v.16a1.6,1.6,0,0,0,1.74,1.42c2.13-.2,4.25-.45,6.37-.72a1.64,1.64,0,0,0,1.37-1.8" transform="translate(0 0)"/><path id="path140" class="cls-65" d="M408.76,120.68a1.58,1.58,0,0,0-.38-2.21c-1.71-1.22-3.42-2.46-5.1-3.72a1.59,1.59,0,0,0-2.23.32,1.64,1.64,0,0,0-.32,1,1.59,1.59,0,0,0,.65,1.27c1.7,1.28,3.43,2.54,5.17,3.77a1.59,1.59,0,0,0,2.21-.38" transform="translate(0 0)"/><path id="path142" class="cls-66" d="M414.82,131.76q-3.13-.47-6.24-1a1.58,1.58,0,0,0-1.83,1.3,1.27,1.27,0,0,0,0,.28,1.6,1.6,0,0,0,1.32,1.56q3.13.54,6.32,1a1.59,1.59,0,0,0,1.79-1.35,1.54,1.54,0,0,0-1.33-1.8" transform="translate(0 0)"/><path id="path144" class="cls-67" d="M396.22,128.22c-2.05-.49-4.08-1-6.12-1.54a1.59,1.59,0,0,0-1.94,1.13,1.4,1.4,0,0,0-.05.41,1.6,1.6,0,0,0,1.18,1.54c2,.55,4.12,1.06,6.2,1.56a1.59,1.59,0,0,0,1.91-1.19,1.58,1.58,0,0,0-1.18-1.91" transform="translate(0 0)"/><path id="path146" class="cls-68" d="M440.63,138.57c-1.81-1-3.64-2.09-5.5-3.18a.2.2,0,0,1,0-.07,1.69,1.69,0,0,0-1.5-1.68c-2.09-.12-4.2-.26-6.28-.44a1.59,1.59,0,0,0-1.73,1.45v.14a1.59,1.59,0,0,0,1.45,1.58c1.89.16,3.78.29,5.66.41a1.58,1.58,0,0,0,.79,1.36c1.86,1.09,3.7,2.16,5.53,3.19a1.59,1.59,0,0,0,1.57-2.76" transform="translate(0 0)"/><path id="path148" class="cls-69" d="M448.65,28.72a1.6,1.6,0,0,0,2.22.32,1.61,1.61,0,0,0,.32-2.23c-1.3-1.74-2.65-3.42-4.08-5a1.59,1.59,0,0,0-2.79,1.05,1.57,1.57,0,0,0,.4,1.05c1.37,1.56,2.67,3.18,3.93,4.85" transform="translate(0 0)"/><path id="path150" class="cls-70" d="M378,123.07q-3-1-6-2.07a1.56,1.56,0,0,0-2,.94,1.52,1.52,0,0,0-.1.55,1.59,1.59,0,0,0,1,1.49c2,.74,4,1.43,6,2.11a1.59,1.59,0,0,0,1-3" transform="translate(0 0)"/><path id="path152" class="cls-71" d="M493.81,16.11a53.89,53.89,0,0,0-5.36,3.71,1.61,1.61,0,0,0-.61,1.25,1.63,1.63,0,0,0,.32,1,1.6,1.6,0,0,0,2.24.28,53.57,53.57,0,0,1,5.07-3.53,1.58,1.58,0,1,0-1.66-2.7" transform="translate(0 0)"/><path id="path154" class="cls-72" d="M376.13,88.75a1.59,1.59,0,0,0-2.86,1,1.58,1.58,0,0,0,.32,1c1.29,1.71,2.65,3.39,4.06,5a1.59,1.59,0,1,0,2.41-2.07q-2.06-2.39-3.93-4.86" transform="translate(0 0)"/><path id="path156" class="cls-73" d="M382.39,4.63c-.48.25-1,.52-1.46.8a40.46,40.46,0,0,0-4.13,2.74,1.59,1.59,0,0,0-.31,2.22,1.58,1.58,0,0,0,2.22.32,34.37,34.37,0,0,1,3.81-2.52c.44-.26.89-.49,1.34-.74a1.57,1.57,0,0,0,.68-2.14,1.6,1.6,0,0,0-2.15-.68" transform="translate(0 0)"/><path id="path158" class="cls-74" d="M393.62,109.1a1.59,1.59,0,0,0-.17-2.24c-1.59-1.38-3.16-2.78-4.68-4.21a1.58,1.58,0,0,0-2.67,1.15,1.57,1.57,0,0,0,.5,1.16c1.55,1.47,3.15,2.9,4.78,4.31a1.59,1.59,0,0,0,2.24-.17" transform="translate(0 0)"/><path id="path160" class="cls-75" d="M490.73,132a1.59,1.59,0,1,0-.74-3.09c-1.08.26-2.15.5-3.24.74s-1.94.41-2.92.6a1.6,1.6,0,0,0-1.28,1.56,1.65,1.65,0,0,0,0,.31,1.59,1.59,0,0,0,1.87,1.25l3-.61,3.3-.76" transform="translate(0 0)"/><path id="path162" class="cls-76" d="M454.2,135.37a1.58,1.58,0,0,0-1.64-1.53q-3.17.12-6.3.13a1.58,1.58,0,0,0-1.58,1.59h0a1.58,1.58,0,0,0,1.59,1.59c2.13,0,4.27-.05,6.4-.13a1.66,1.66,0,0,0,1.53-1.65" transform="translate(0 0)"/><path id="path164" class="cls-77" d="M493.94,155.39c-2.08-.12-4.17-.29-6.24-.52a1.57,1.57,0,0,0-1.76,1.39,1.15,1.15,0,0,0,0,.18,1.59,1.59,0,0,0,1.41,1.58c2.13.24,4.27.43,6.41.55a1.58,1.58,0,0,0,1.68-1.5,1.61,1.61,0,0,0-1.49-1.68" transform="translate(0 0)"/><path id="path166" class="cls-78" d="M475.33,152.78c-2-.46-4.06-1-6.06-1.55a1.59,1.59,0,0,0-2,1.1,1.56,1.56,0,0,0,1.09,2q3.11.87,6.24,1.58a1.6,1.6,0,0,0,1.91-1.2,1.62,1.62,0,0,0-1.21-1.9" transform="translate(0 0)"/><path id="path168" class="cls-79" d="M479,28.76c-1.43,1.63-2.81,3.29-4.12,5a1.6,1.6,0,0,0-.33,1,1.58,1.58,0,0,0,.62,1.26,1.6,1.6,0,0,0,2.23-.28c1.27-1.65,2.58-3.26,4-4.82A1.59,1.59,0,1,0,479,28.76" transform="translate(0 0)"/><path id="path170" class="cls-80" d="M457.42,147.13c-1.93-.79-3.84-1.65-5.71-2.54a1.57,1.57,0,0,0-2.28,1.43,1.57,1.57,0,0,0,.89,1.43c1.93.93,3.91,1.8,5.89,2.63a1.59,1.59,0,1,0,1.21-3" transform="translate(0 0)"/><path id="path172" class="cls-81" d="M366.65,72.72a1.59,1.59,0,0,0-3,.61,1.73,1.73,0,0,0,.13.63c.84,2,1.79,3.92,2.83,5.85a1.59,1.59,0,0,0,2.8-1.52c-1-1.84-1.91-3.72-2.71-5.57" transform="translate(0 0)"/><path id="path174" class="cls-82" d="M458.21,37.63a1.57,1.57,0,0,0-2.16-.59,1.59,1.59,0,0,0-.8,1.38,1.68,1.68,0,0,0,.2.79q1.56,2.73,2.95,5.54a1.59,1.59,0,1,0,2.84-1.43c-.95-1.91-2-3.82-3-5.69" transform="translate(0 0)"/></g></svg>