<?xml version="1.0" encoding="utf-8"?>
<!-- Generator: Adobe Illustrator 24.0.1, SVG Export Plug-In . SVG Version: 6.00 Build 0)  -->
<svg version="1.1"
	 id="svg1444" xmlns:cc="http://creativecommons.org/ns#" xmlns:dc="http://purl.org/dc/elements/1.1/" xmlns:inkscape="http://www.inkscape.org/namespaces/inkscape" xmlns:rdf="http://www.w3.org/1999/02/22-rdf-syntax-ns#" xmlns:sodipodi="http://sodipodi.sourceforge.net/DTD/sodipodi-0.dtd" xmlns:svg="http://www.w3.org/2000/svg"
	 xmlns="http://www.w3.org/2000/svg" xmlns:xlink="http://www.w3.org/1999/xlink" x="0px" y="0px" viewBox="0 0 819.1 187.5"
	 style="enable-background:new 0 0 819.1 187.5;" xml:space="preserve">
<style type="text/css">
	.st0{fill:none;}
	.st1{clip-path:url(#SVGID_2_);}
	.st2{fill:url(#path1396_1_);}
	.st3{fill:#7519FF;}
	.st4{font-family:'SegoeUI-Bold';}
	.st5{font-size:141.6198px;}
	.st6{fill:#1B1B1B;}
	.st7{font-size:47.3239px;}
</style>
<sodipodi:namedview  bordercolor="#666666" borderopacity="1.0" fit-margin-bottom="0" fit-margin-left="0" fit-margin-right="0" fit-margin-top="0" id="base" inkscape:current-layer="g1418" inkscape:cx="654.40184" inkscape:cy="203.13361" inkscape:document-rotation="0" inkscape:document-units="mm" inkscape:pageopacity="0.0" inkscape:pageshadow="2" inkscape:window-height="1030" inkscape:window-maximized="0" inkscape:window-width="1758" inkscape:window-x="144" inkscape:window-y="0" inkscape:zoom="0.70000001" pagecolor="#ffffff" showgrid="false">
	</sodipodi:namedview>
<g id="layer1" transform="translate(-63.926393,-86.199087)" inkscape:groupmode="layer" inkscape:label="Layer 1">
	<path id="path1390" class="st0" d="M57.7,335.7h250v-250h-250V335.7z"/>
	<g id="g1418" transform="matrix(0.65051812,0,0,-0.65051812,22.429066,202.86538)">
		<g id="g1404" transform="matrix(0.97507715,0,0,0.97507715,8.3034503,-13.397911)">
			<g>
				<defs>
					<path id="SVGID_1_" d="M56.9,4.6c0-37.7,10.9-72.9,29.5-102.6l0,0c3.3,23.7,23.6,42,48.2,42l0,0c6.6,0,12.9-1.3,18.6-3.7l0,0
						c2.9,14,15.3,24.5,30.1,24.5l0,0c7.9,0,15.1-3,20.5-7.9l0,0c8.6,33,38.6,57.4,74.4,57.4l0,0c40.6,0,73.8-31.5,76.6-71.4l0,0
						c3.3,0.7,6.7,1.1,10.2,1.1l0,0c24.6,0,44.9-18.3,48.2-42l0,0C432.1-68.2,443-33.1,443,4.6l0,0c0,106.6-86.4,193-193,193l0,0
						C143.3,197.7,56.9,111.2,56.9,4.6 M189.6,63.5L92.8,75.3l28.5,14.9c4.1,2.1,8.6,3.4,13.2,3.7l0,0l122.3,7.8l55.5,31.4
						c13.3,7.5,28.8,10.1,43.8,7.4l0,0l7.8-1.4c4.7-0.9,5.9-7,1.8-9.6l0,0L260.6,65.1L230.9,23c-4.2-6-10.3-10.4-17.3-12.5l0,0
						l-17.3-5.3l11.8,28.6l-68-31.6c-9.8-5.4-20.1-9.6-30.8-12.7l0,0c-4.4-1.3-7.9,3.8-5.2,7.5l0,0l13.1,18.2L96,23.6l21.6,13.7
						l24.8-1.4L189.6,63.5z"/>
				</defs>
				<clipPath id="SVGID_2_">
					<use xlink:href="#SVGID_1_"  style="overflow:visible;"/>
				</clipPath>
				<g id="g1402" class="st1">
					<g id="g1400">
						<g id="g1398">
							
								<linearGradient id="path1396_1_" gradientUnits="userSpaceOnUse" x1="-1697.0156" y1="-2361.8101" x2="-1696.0156" y2="-2361.8101" gradientTransform="matrix(170.9567 -170.9567 -170.9567 -170.9567 -113535.8906 -693740.4375)">
								<stop  offset="0" style="stop-color:#FF3EFF"/>
								<stop  offset="1" style="stop-color:#7519FF"/>
							</linearGradient>
							<path id="path1396" class="st2" d="M56.9,4.6c0-37.7,10.9-72.9,29.5-102.6l0,0c3.3,23.7,23.6,42,48.2,42l0,0
								c6.6,0,12.9-1.3,18.6-3.7l0,0c2.9,14,15.3,24.5,30.1,24.5l0,0c7.9,0,15.1-3,20.5-7.9l0,0c8.6,33,38.6,57.4,74.4,57.4l0,0
								c40.6,0,73.8-31.5,76.6-71.4l0,0c3.3,0.7,6.7,1.1,10.2,1.1l0,0c24.6,0,44.9-18.3,48.2-42l0,0C432.1-68.2,443-33.1,443,4.6
								l0,0c0,106.6-86.4,193-193,193l0,0C143.3,197.7,56.9,111.2,56.9,4.6 M189.6,63.5L92.8,75.3l28.5,14.9
								c4.1,2.1,8.6,3.4,13.2,3.7l0,0l122.3,7.8l55.5,31.4c13.3,7.5,28.8,10.1,43.8,7.4l0,0l7.8-1.4c4.7-0.9,5.9-7,1.8-9.6l0,0
								L260.6,65.1L230.9,23c-4.2-6-10.3-10.4-17.3-12.5l0,0l-17.3-5.3l11.8,28.6l-68-31.6c-9.8-5.4-20.1-9.6-30.8-12.7l0,0
								c-4.4-1.3-7.9,3.8-5.2,7.5l0,0l13.1,18.2L96,23.6l21.6,13.7l24.8-1.4L189.6,63.5z"/>
						</g>
					</g>
				</g>
			</g>
		</g>
		<text transform="matrix(1.5372 0 0 -1.5372 467.577 -18.5205)" class="st3 st4 st5">HABECK</text>
		<text transform="matrix(1.5372 0 0 -1.5372 862.7173 -89.2754)" class="st6 st4 st7">T U R I S M O</text>
	</g>
</g>
</svg>
