<svg id="svg1444" xmlns="http://www.w3.org/2000/svg" xmlns:xlink="http://www.w3.org/1999/xlink" viewBox="0 0 825.26 250"><defs><style>.cls-1{fill:none;}.cls-2{clip-path:url(#clip-path);}.cls-3{fill:url(#Gradiente_sem_nome);}.cls-4,.cls-5,.cls-6{isolation:isolate;}.cls-5{font-size:141.62px;fill:#7519ff;}.cls-5,.cls-6{font-family:SegoeUI-Bold, Segoe UI;font-weight:700;}.cls-6{font-size:47.32px;fill:#1b1b1b;}</style><clipPath id="clip-path" transform="translate(6.21 0.45)"><path class="cls-1" d="M0,122.44A121.77,121.77,0,0,0,18.74,187.5h0a30.91,30.91,0,0,1,30.6-26.65h0a30.76,30.76,0,0,1,11.81,2.35h0a19.54,19.54,0,0,1,19.12-15.52h0a19.47,19.47,0,0,1,13,5h0a48.75,48.75,0,0,1,47.17-36.43h0a48.72,48.72,0,0,1,48.6,45.3h0a31.45,31.45,0,0,1,6.48-.69h0a30.91,30.91,0,0,1,30.6,26.65h0a121.77,121.77,0,0,0,18.74-65.06h0A122.44,122.44,0,0,0,122.44,0h0A122.44,122.44,0,0,0,0,122.44m84.19-37.3-61.4-7.5,18.1-9.43a21,21,0,0,1,8.36-2.33h0l77.58-5,35.22-20a41.32,41.32,0,0,1,27.8-4.68h0l5,.9A3.32,3.32,0,0,1,196,43.27h0L129.23,84.06l-18.89,26.75a21,21,0,0,1-11,8h0l-11,3.39L95.9,104l-43.16,20a94.26,94.26,0,0,1-19.56,8.06h0a3.07,3.07,0,0,1-3.33-4.75h0l8.33-11.55-13.39-5.43,13.68-8.69,15.72.91Z"/></clipPath><linearGradient id="Gradiente_sem_nome" x1="-1112.52" y1="1623.49" x2="-1111.52" y2="1623.49" gradientTransform="matrix(170.96, 170.96, 170.96, -170.96, -87316.55, 467774.2)" gradientUnits="userSpaceOnUse"><stop offset="0" stop-color="#ff3eff"/><stop offset="1" stop-color="#7519ff"/></linearGradient></defs><title>Logo</title><g id="layer1"><path id="path1390" class="cls-1" d="M-6.21,249.55h250V-.45h-250Z" transform="translate(6.21 0.45)"/><g id="g1418"><g id="g1404"><g class="cls-2"><g id="g1402"><g id="g1400"><g id="g1398"><path id="path1396" class="cls-3" d="M0,122.44A121.77,121.77,0,0,0,18.74,187.5h0a30.91,30.91,0,0,1,30.6-26.65h0a30.76,30.76,0,0,1,11.81,2.35h0a19.54,19.54,0,0,1,19.12-15.52h0a19.47,19.47,0,0,1,13,5h0a48.75,48.75,0,0,1,47.17-36.43h0a48.72,48.72,0,0,1,48.6,45.3h0a31.45,31.45,0,0,1,6.48-.69h0a30.91,30.91,0,0,1,30.6,26.65h0a121.77,121.77,0,0,0,18.74-65.06h0A122.44,122.44,0,0,0,122.44,0h0A122.44,122.44,0,0,0,0,122.44m84.19-37.3-61.4-7.5,18.1-9.43a21,21,0,0,1,8.36-2.33h0l77.58-5,35.22-20a41.32,41.32,0,0,1,27.8-4.68h0l5,.9A3.32,3.32,0,0,1,196,43.27h0L129.23,84.06l-18.89,26.75a21,21,0,0,1-11,8h0l-11,3.39L95.9,104l-43.16,20a94.26,94.26,0,0,1-19.56,8.06h0a3.07,3.07,0,0,1-3.33-4.75h0l8.33-11.55-13.39-5.43,13.68-8.69,15.72.91Z" transform="translate(6.21 0.45)"/></g></g></g></g></g><g id="text1394" class="cls-4"><text class="cls-5" transform="translate(268.88 129.17)">HABECK</text></g><g id="text1416" class="cls-4"><text class="cls-6" transform="translate(525.92 175.2)">T U R I S M O</text></g></g></g></svg>